<?xml version="1.0" encoding="utf-8"?>
<!-- Generator: Adobe Illustrator 27.9.0, SVG Export Plug-In . SVG Version: 6.00 Build 0)  -->
<svg version="1.1" id="Capa_1" xmlns="http://www.w3.org/2000/svg" xmlns:xlink="http://www.w3.org/1999/xlink" x="0px" y="0px"
	 viewBox="0 0 168.3 179.1" style="enable-background:new 0 0 168.3 179.1;" xml:space="preserve">
<style type="text/css">
	.st0{fill:#FFFFFF;}
</style>
<g>
	<path class="st0" d="M129.8,105.2c-0.1,0-0.3,0.1-0.4,0.2c-0.1,0.9-0.3,1.7-0.4,2.6c1.2,0,2.5-0.1,3.7-0.1c0.1-1,0.3-2,0.5-3
		c-0.2,0-0.5,0-0.7,0C131.5,104.9,130.6,105,129.8,105.2z"/>
	<path class="st0" d="M128,115.1c0.5,0.3,1.1,0.4,1.7,0.4c0.4,0,0.9-0.1,1.4-0.2c0.2,0,0.4-0.1,0.5-0.2c0.1-0.6,0.2-1.2,0.3-1.8
		l-3.7-0.1C128.1,113.9,128.1,114.5,128,115.1L128,115.1z"/>
	<path class="st0" d="M109.7,17.5c2.3,0,4-1.7,4.1-4c0.1-2.4-1.5-4.1-3.9-4.2c-2.4-0.1-4.1,1.5-4.2,3.9
		C105.6,15.6,107.3,17.4,109.7,17.5z"/>
	<path class="st0" d="M50.4,6.8c1.9-0.1,3.3-1.5,3.2-3.5C53.5,1.4,52,0,50.1,0c-1.9,0.1-3.3,1.6-3.2,3.5C46.9,5.5,48.5,6.9,50.4,6.8
		z"/>
	<path class="st0" d="M30.2,106l-5.3,0.3l0.2-8.3H32c-0.2-2-0.4-4.1-0.2-6.1c0.4-5.4,3.1-9.2,7.5-10.1c9.7-2,19.4-3.9,29.1-5.8
		c7.5-1.5,15-3,22.5-4.5c1.5-1.1,4.8-2.1,7.7-2.5l0,0l0,0c4-1.3,7.9-2.6,11.9-3.9c-0.6-0.6-1.4-0.6-2.1-0.8
		c-8.3-1.7-16.5-3.5-24.9-4.9c-3-0.5-5.4-1.1-5.7-4.7c0-0.5-0.4-1.2-0.8-1.6c-1.1-1.2-0.6-2,0.3-3c7.5-8.2,14.9-16.4,22.4-24.7
		c1.9-2.2,3.9-4.3,5.8-6.5c0.3-0.4,1.2-0.8,0.4-1.4c-0.7-0.6-1,0.3-1.4,0.6c-0.2,0.1-0.4,0.4-0.6,0.5C94.5,27.8,85.1,37,75.8,46.3
		c-1.7,1.7-3.1,3-5.5,1.2c-0.9-0.7-2.3-0.8-3.5-0.7c-1.7,0.1-2.3-0.7-2.8-2.2c-1.7-5.3-3.5-10.5-5.3-15.7l0,0l0,0
		c-2.3-7-4.5-14-6.8-20.9c-0.3,0.1-0.7,0.2-1,0.3c2.1,7.8,4.2,15.5,6.3,23.3l0,0l0,0c1.2,4.7,2.4,9.4,3.7,14.1
		c0.3,1.2,0.2,1.9-1,2.4c-2,1-3.8,2.3-5,4.3c-0.6,0.9-1.2,1.1-2.3,0.9c-4.2-0.9-8.4-1.7-12.6-2.5c-6.8-1.2-13.4-3.3-20.5-2.8
		C5,49-3.2,60.7,1.2,74.5c8.6,27.5,17.4,54.9,26,82.3c1.1,3.5,3.3,6,6.5,7.4s6.5,1.9,10,1.6c7.6-0.7,14.2-4.1,21-6.9l0,0
		c-4.2-2.2-8.6-3.8-13.1-5.2c-8.5-2.5-13.1-7.9-14.1-16.8c-0.6-4.8-1.2-9.5-1.9-14.3l-5.5,0.3L30.2,106z"/>
	<polygon class="st0" points="104.8,113.4 107.4,113.4 106.1,107.3 	"/>
	<path class="st0" d="M127.7,106.4c-0.6,0.5-1.1,1.1-1.4,1.9s-0.5,1.6-0.5,2.6c0,0.6,0.1,1.2,0.2,1.8s0.4,1.1,0.8,1.5
		c0.3,0.4,0.7,0.8,1.2,1.1c0.1-0.6,0.2-1.2,0.3-1.8h-0.1l0.2-5.3c0.2,0,0.4,0,0.7,0c0.1-0.9,0.3-1.7,0.4-2.6
		C128.8,105.7,128.2,106,127.7,106.4z"/>
	<path class="st0" d="M120.4,120.1c-1-1-1.9-2.3-2.4-3.7s-0.9-3-0.9-4.7c0-1.3,0.1-2.5,0.4-3.7s0.7-2.3,1.3-3.4s1.2-2,2-2.9
		s1.7-1.6,2.7-2.3c1-0.6,2.1-1.1,3.3-1.5c1.2-0.3,2.5-0.5,3.8-0.5l0,0c0.5-3.2,0.9-6.5,1.3-9.7c0.3-2.2,0.6-4.4,0.9-6.6
		c0.4-2.9-0.2-5.7-2-8.8c-1.1-2-3.1-2.4-6.1-2.9l-0.4-0.1c-2.3-0.4-4.4-0.9-6.4-1.4l-4.1-1.1c-3.3,0.6-6.6,1.2-9.8,1.9l-5,1.6
		c-2.7,0.4-5.8,1.3-7.1,2.3l-0.3,0.2l-6.9,1.4c-5.3,1.1-10.6,2.1-15.9,3.2c-3.5,0.7-6.9,1.4-10.4,2.1c-6.3,1.2-12.5,2.5-18.7,3.7
		c-3.7,0.7-6,3.9-6.3,8.7c-0.1,2,0,4,0.2,6h10.8v1.8l7.9-0.7l3.4,13.4L59,97.9l8.1,0.5l-6.5,23.8l-8.7,0.5L44.4,101l-0.2,4.4
		l-5.3,0.2l-1.3,16.7h-0.4c0.7,4.7,1.4,9.5,1.9,14.2l0,0c1,8.2,5.1,13.2,13,15.5c5.1,1.5,9.5,3.2,13.3,5.3l1.3,0.7
		c0.2-0.1,0.5-0.1,0.7-0.2c3.7-1.4,7.3-2.8,11-4.1l8.1-4.5c0.7-0.7,1.5-1.1,2.2-1.3c0.4-0.2,0.7-0.3,0.9-0.5l0.3-0.3l0.4-0.2
		c2.8-1.1,5.5-2.1,8.3-3.2c6.6-2.5,13.4-5.1,20.1-7.7c4-1.6,6.5-4.7,7.3-8.9c0.2-1.3,0.5-2.6,0.7-4c-0.9-0.1-1.7-0.4-2.5-0.7
		C122.7,121.9,121.4,121.1,120.4,120.1z M85,123.7l0.1-13.6l-3.6,11h-3.1l-2.8-9.8v11.4l-8.1,0.2l0.4-24.4l9.1-0.4l3.6,11.7
		l4.8-12.4h9.5l-1.6,25.9L85,123.7z M109.1,122.8l-1.1-4h-4l-0.9,4l-9-0.9l7-23.5l9.8-0.5l6.9,23.7L109.1,122.8z"/>
	<path class="st0" d="M161.3,65.9c-3.9-3.1-8.6-4.6-13.6-4.7c-9.5-0.2-18.5,2.8-27.7,4.6c2.1,0.6,4.1,1,6.2,1.4c3,0.5,6.2,0.9,7.9,4
		c1.8,3.1,2.8,6.4,2.3,10c-0.8,5.5-1.5,11-2.3,16.6c0.5,0.1,0.9,0.2,1.3,0.3c0.5,0.2,1,0.4,1.5,0.7l-0.5,6.7c-0.7-0.2-1.3-0.4-2-0.5
		c-0.5-0.1-0.9-0.1-1.3-0.1c-0.1,1-0.3,2-0.5,3c0.3,0,0.6,0,0.9,0c1.8,0,3.5-0.1,5.3-0.2l0.2,11.5c-0.6,0.7-1.2,1.3-2,1.8
		s-1.7,0.9-2.6,1.3s-1.9,0.6-2.9,0.8c-0.4,0.1-0.9,0.1-1.3,0.2c-0.2,1.3-0.4,2.6-0.7,4c-0.9,4.9-3.8,8.6-8.5,10.4
		c-9.4,3.7-18.9,7.3-28.4,10.9c-0.9,0.9-2.4,0.9-3.2,2c-5.7,3.2-11.5,6.3-17.5,9.6c0.8,0.4,1.3,0.7,1.9,0.9
		c14.2,5.4,28.4,10.9,42.6,16.3c3.9,1.5,8,1.9,12.1,1.6c6.2-0.4,10.8-3.6,12.4-8.7c8.8-27.7,17.5-55.3,26.3-83
		C169.9,78.8,167.7,71,161.3,65.9z"/>
	<path class="st0" d="M132.3,114.8l0.1-1.4h-0.5c-0.1,0.6-0.2,1.2-0.3,1.8C131.9,115.1,132.1,114.9,132.3,114.8z"/>
</g>
</svg>
